# xmcd
#
# Track frame offsets:
#	150
#	3827
#	25337
#	44742
#	64717
#	70705
#	92525
#	110280
#	131320
#	147215
#	168247
#	171102
#
# Disc length: 2539 seconds
#
# Revision: 1
# Processed by: cddbd v1.5.1PL0 Copyright (c) Steve Scherf et al.
# Submitted via: CDex 1.50Beta5
#
DISCID=9409e90c
DTITLE=SISTER KAYA - UNITY
DYEAR=2001
DGENRE=ミュージック
TTITLE0=メリーゴーランド序章(intro)
TTITLE1=島唄
TTITLE2=She’s a woman
TTITLE3=夜の海
TTITLE4=輪廻(inter lude)
TTITLE5=春夏秋冬 feat.Anthony B
TTITLE6=愛の花 We are sisteren.feat.Marcia Griffith
TTITLE7=Part of my soul
TTITLE8=smile feat.George Nooks
TTITLE9=UNITY BIG MOUNTAIN Version.
TTITLE10=メリーゴーランド最終章(outro)
TTITLE11=(Bonus Track)She’s a woman 日本語バージョン
EXTD=
EXTT0=
EXTT1=
EXTT2=
EXTT3=
EXTT4=
EXTT5=
EXTT6=
EXTT7=
EXTT8=
EXTT9=
EXTT10=
EXTT11=
PLAYORDER=
